<svg width="36" height="23" viewBox="0 0 36 23" fill="none" xmlns="http://www.w3.org/2000/svg">
<path d="M26.4035 22H6.55341C2.93984 22 0 19.0735 0 15.4762C0 12.1984 2.44055 9.47748 5.60791 9.02006C6.55003 3.86426 11.0796 0 16.4784 0C19.3737 0 22.1543 1.13811 24.2125 3.14444C30.2543 1.73839 36 6.32737 36 12.4469C36 17.7146 31.695 22 26.4035 22Z" fill="#21BD7E"/>
<path d="M9.99065 10.7406C10.4121 10.2884 10.3872 9.58003 9.93503 9.15859C8.78707 8.08864 7.50969 7.37533 6.2067 7.04065C5.92707 7.72933 5.71719 8.44774 5.58203 9.18595C6.43043 9.3847 7.39635 9.85266 8.40866 10.7963C8.86081 11.2176 9.56907 11.1928 9.99065 10.7406Z" fill="#17513A"/>
<path d="M24.0597 3.10156C22.3435 1.44394 20.1312 0.377611 17.7666 0.052002V22.026H26.2792C31.6394 22.026 36.0004 17.7249 36.0004 12.438C36.0004 6.29618 30.1801 1.69038 24.0597 3.10156Z" fill="#17513A"/>
</svg>
