<svg width="512" height="512" viewBox="0 0 512 512" fill="none" xmlns="http://www.w3.org/2000/svg">
<path d="M255.994 512C187.613 512 123.326 485.371 74.974 437.02C69.305 431.351 69.305 422.158 74.974 416.487C80.645 410.818 89.835 410.818 95.507 416.487C138.374 459.356 195.37 482.963 255.995 482.963C316.62 482.963 373.615 459.355 416.483 416.487C459.35 373.62 482.959 316.624 482.959 255.999C482.959 195.374 459.35 138.379 416.483 95.511C373.614 52.642 316.62 29.035 255.995 29.035C195.37 29.035 138.374 52.644 95.506 95.512C38.25 152.768 15.776 236.962 36.856 315.24C38.941 322.982 34.353 330.948 26.612 333.033C18.864 335.121 10.904 330.532 8.81696 322.789C-2.68304 280.078 -2.93904 234.853 8.08196 192.005C19.437 147.853 42.568 107.387 74.974 74.98C123.326 26.629 187.613 0 255.994 0C324.375 0 388.662 26.629 437.014 74.98C485.366 123.332 511.994 187.619 511.994 256C511.994 324.381 485.365 388.667 437.014 437.02C388.662 485.371 324.374 512 255.994 512Z" fill="#21BD7E"/>
<path d="M255.994 82.4722C160.158 82.4722 82.4658 160.162 82.4658 256C82.4658 351.838 160.156 429.528 255.994 429.528C351.832 429.528 429.522 351.838 429.522 256C429.522 160.162 351.83 82.4722 255.994 82.4722ZM192.841 245.837C179.611 245.837 168.886 230.02 168.886 210.51C168.886 190.999 179.61 175.183 192.841 175.183C206.072 175.183 216.796 191 216.796 210.51C216.796 230.02 206.069 245.837 192.841 245.837ZM319.147 245.837C305.917 245.837 295.192 230.02 295.192 210.51C295.192 190.999 305.916 175.183 319.147 175.183C332.378 175.183 343.102 191 343.102 210.51C343.102 230.02 332.376 245.837 319.147 245.837Z" fill="#206A4C"/>
<path d="M255.994 444.046C152.305 444.046 67.9502 359.689 67.9502 256C67.9502 152.311 152.305 67.9541 255.994 67.9541C359.683 67.9541 444.038 152.311 444.038 256C444.038 359.689 359.683 444.046 255.994 444.046ZM255.994 96.9901C168.316 96.9901 96.9862 168.321 96.9862 256C96.9862 343.679 168.317 415.01 255.994 415.01C343.671 415.01 415.002 343.679 415.002 256C415.002 168.321 343.671 96.9901 255.994 96.9901ZM319.147 260.355C297.575 260.355 280.674 238.46 280.674 210.51C280.674 182.56 297.574 160.665 319.147 160.665C340.72 160.665 357.62 182.56 357.62 210.51C357.62 238.46 340.719 260.355 319.147 260.355ZM319.147 189.702C315.908 189.702 309.71 197.806 309.71 210.511C309.71 223.216 315.908 231.32 319.147 231.32C322.386 231.32 328.584 223.216 328.584 210.511C328.584 197.806 322.386 189.702 319.147 189.702ZM192.841 260.355C171.269 260.355 154.368 238.46 154.368 210.51C154.368 182.56 171.268 160.665 192.841 160.665C214.414 160.665 231.314 182.56 231.314 210.51C231.314 238.46 214.413 260.355 192.841 260.355ZM192.841 189.702C189.602 189.702 183.404 197.806 183.404 210.511C183.404 223.216 189.602 231.32 192.841 231.32C196.08 231.32 202.278 223.216 202.278 210.511C202.277 197.806 196.08 189.702 192.841 189.702Z" fill="#21BD7E"/>
<path d="M255.994 358.195C230.271 358.195 206.279 347.993 188.435 329.467C182.873 323.692 183.044 314.502 188.82 308.939C194.594 303.376 203.787 303.55 209.348 309.324C221.668 322.116 238.234 329.16 255.996 329.16C273.758 329.16 290.324 322.116 302.644 309.324C308.207 303.549 317.396 303.379 323.172 308.939C328.947 314.502 329.119 323.692 323.557 329.467C305.709 347.992 281.715 358.195 255.994 358.195Z" fill="#21BD7E"/>
</svg>
