<svg width="351" height="493" viewBox="0 0 351 493" fill="none" xmlns="http://www.w3.org/2000/svg">
<path fill-rule="evenodd" clip-rule="evenodd" d="M178.415 3.95563C202.126 29.6823 224.781 56.465 245.9 84.3036C263.563 107.822 280.266 132.109 295.145 157.452C317.608 195.85 337.095 238.472 346.023 282.246C349.383 299.333 351.302 316.708 350.822 334.083C350.514 349.158 348.255 364.13 344.103 378.625C336.615 404.543 322.696 427.39 302.825 445.821C268.843 477.5 221.613 492.379 175.631 492.379C129.746 492.379 82.516 477.404 48.4377 445.821C28.7983 427.614 14.5223 404.374 7.15977 378.625C3.00722 364.13 0.748569 349.158 0.440118 334.083C0.0561375 316.708 1.88005 299.333 5.33587 282.246C14.2634 238.472 33.7504 195.85 56.2133 157.452C71.0926 132.109 87.7957 107.822 105.459 84.3036C126.578 56.465 149.233 29.6823 172.943 3.95563L175.727 0.883789L178.415 3.95563Z" fill="#21BD7E"/>
<path fill-rule="evenodd" clip-rule="evenodd" d="M149.233 260.455C146.868 257.835 143.958 255.764 140.708 254.387C137.458 253.011 133.946 252.362 130.418 252.487C122.738 252.487 116.499 254.887 111.987 261.223C107.363 267.961 105.009 275.998 105.267 284.166C105.267 292.805 106.611 303.077 112.563 309.796C114.784 312.395 117.556 314.467 120.678 315.862C123.799 317.257 127.192 317.939 130.61 317.86C138.098 317.86 144.049 315.076 149.041 309.604C154.522 302.703 157.257 294.018 156.721 285.222C156.721 276.582 155.185 266.983 149.137 260.455H149.233ZM206.446 248.647L130.898 394.176H145.105L220.365 248.647H206.446ZM219.789 324.964C212.11 324.964 205.774 327.363 201.166 333.603C196.523 340.368 194.168 348.442 194.447 356.642C194.447 365.282 195.887 375.553 201.838 382.273C204.06 384.872 206.832 386.944 209.953 388.338C213.075 389.733 216.467 390.416 219.885 390.336C223.383 390.415 226.854 389.725 230.055 388.315C233.257 386.905 236.11 384.81 238.413 382.177C243.916 375.25 246.653 366.527 246.092 357.698C246.092 349.058 244.556 339.459 238.605 333.027C236.248 330.389 233.343 328.3 230.092 326.907C226.841 325.514 223.324 324.851 219.789 324.964V324.964Z" fill="#181818"/>
<path fill-rule="evenodd" clip-rule="evenodd" d="M138.865 274.47C137.856 273.332 136.613 272.426 135.222 271.813C133.83 271.2 132.322 270.895 130.802 270.918C127.442 270.918 124.658 272.07 122.738 274.758C120.741 277.695 119.732 281.192 119.858 284.742C119.858 288.485 120.434 292.901 123.026 295.877C123.987 296.99 125.183 297.877 126.527 298.475C127.871 299.072 129.331 299.365 130.802 299.333C134.065 299.333 136.657 298.181 138.865 295.781C141.218 292.784 142.38 289.023 142.129 285.222C142.129 281.382 141.553 277.254 138.865 274.47ZM228.141 346.946C227.123 345.826 225.876 344.938 224.485 344.341C223.094 343.745 221.59 343.455 220.077 343.491C216.717 343.491 214.029 344.451 212.014 347.33C210.036 350.241 209.028 353.701 209.134 357.218C209.134 361.058 209.71 365.474 212.301 368.353C213.264 369.497 214.471 370.41 215.833 371.024C217.196 371.639 218.679 371.94 220.173 371.905C223.341 371.905 225.933 370.657 228.141 368.257C230.527 365.274 231.724 361.512 231.501 357.698C231.501 353.954 230.829 349.826 228.141 346.946Z" fill="#21BD7E"/>
</svg>
