<svg width="430" height="488" viewBox="0 0 430 488" fill="none" xmlns="http://www.w3.org/2000/svg">
<path d="M174 304.911C176.6 304.911 179.2 303.911 181.1 301.911L201.4 281.311C205.4 283.211 209.9 284.311 214.6 284.311C231.5 284.311 245.3 270.611 245.3 253.711C245.3 249.111 244.2 244.811 242.4 241.011C242.4 241.011 242.5 241.011 242.5 240.911L266 217.011V223.211C266 228.711 270.5 233.211 276 233.211C281.5 233.211 286 228.711 286 223.211V192.711C286 187.211 281.6 182.711 276 182.711H245.3C239.8 182.711 235.3 187.211 235.3 192.711C235.3 198.211 239.8 202.711 245.3 202.711H252L228.3 226.911C228.3 226.911 228.3 226.911 228.2 227.011C224.1 225.011 219.5 223.911 214.7 223.911C197.8 223.911 184 237.311 184 253.711C184 258.611 185.2 263.211 187.2 267.311L166.9 287.911C163 291.811 163.1 298.211 167 302.011C168.9 303.911 171.5 304.911 174 304.911ZM214.7 243.912C220.5 243.912 225.4 248.412 225.4 253.712C225.4 259.712 220.7 264.312 214.7 264.312C208.7 264.312 204 259.612 204 253.712C204 248.412 208.9 243.912 214.7 243.912Z" fill="#21BD7E"/>
<path d="M263 66.2125C269.4 46.9125 263.5 25.1125 247.2 12.0125C229.1 -3.98748 201.2 -3.98746 182.3 11.9125C166 25.0125 160 46.9125 166.4 66.2125C71.2 88.0125 0 173.012 0 274.312C0 392.112 96.3 487.912 214.7 487.912C333.1 487.912 429.5 392.112 429.5 274.312C429.5 173.012 358.2 88.0115 263 66.2125ZM194.9 27.4125C195 27.3125 195.1 27.3125 195.1 27.2125C206.6 17.5125 223.4 17.4125 234.1 27.0125C234.2 27.1125 234.4 27.2125 234.5 27.4125C245 35.8125 248.3 50.4125 242.9 62.5125C233.7 61.3125 224.2 60.7125 214.7 60.7125C205.2 60.7125 195.7 61.3125 186.5 62.5125C181 50.4125 184.3 35.8115 194.9 27.4125ZM214.7 467.911C136.4 467.911 68.7 421.712 37.8 355.212H91.2H338.1H391.5C360.7 421.712 293 467.911 214.7 467.911ZM128.3 173.012C178.4 131.712 251.1 131.712 301.2 173.012C348.9 212.312 361.6 279.712 332.3 335.212H97.1C67.9 279.713 80.5 212.312 128.3 173.012ZM398.8 335.312H354.5C366.6 307.912 370.7 277.512 365.8 248.012C360 212.512 341.5 180.412 313.9 157.612C256.4 110.312 173.1 110.312 115.6 157.612C88 180.412 69.5 212.512 63.7 248.012C58.8 277.512 62.9 307.912 75 335.312H29.8C23.4 316.112 19.9 295.711 19.9 274.411C20 167.611 107.3 80.7116 214.7 80.7116C322.1 80.7116 409.5 167.512 409.5 274.312C409.5 295.612 406 316.112 399.6 335.312C399.3 335.312 399.1 335.312 398.8 335.312Z" fill="#21BD7E"/>
</svg>
