<svg width="159" height="512" viewBox="0 0 159 512" fill="none" xmlns="http://www.w3.org/2000/svg">
<path d="M114.757 361.46V35.31C114.757 15.809 98.9485 0 79.4475 0C59.9465 0 44.1375 15.809 44.1375 35.31V361.46C18.0815 374.429 0.11149 401.21 0.000489806 432.264C-0.15051 474.646 34.6315 510.687 76.9945 511.964C121.992 513.319 158.895 477.245 158.895 432.552C158.895 401.375 140.894 374.468 114.757 361.46Z" fill="#21BD7E"/>
<path d="M92.6884 381.322V88.2762C92.6884 80.9662 86.7574 75.0352 79.4474 75.0352C72.1374 75.0352 66.2064 80.9662 66.2064 88.2762V381.322C43.3754 387.21 26.4824 407.88 26.4824 432.552C26.4824 461.804 50.1954 485.518 79.4484 485.518C108.701 485.518 132.414 461.805 132.414 432.552C132.413 407.881 115.52 387.211 92.6884 381.322Z" fill="#AFB9D2"/>
<path d="M92.6884 381.322V88.2762C92.6884 80.9662 86.7574 75.0352 79.4474 75.0352C72.1374 75.0352 66.2064 80.9662 66.2064 88.2762V381.322C43.3754 387.21 26.4824 407.88 26.4824 432.552C26.4824 461.804 50.1954 485.518 79.4484 485.518C108.701 485.518 132.414 461.805 132.414 432.552C132.413 407.881 115.52 387.211 92.6884 381.322Z" fill="#AFB9D2"/>
<path d="M85.9451 365H73.0881C71.6669 365 70.5166 363.882 70.5166 362.5C70.5166 361.118 71.6666 360 73.0881 360H85.9451C87.3663 360 88.5166 361.118 88.5166 362.5C88.5163 363.882 87.3663 365 85.9451 365Z" fill="#1C56E6"/>
<path d="M82.9165 350H75.1167C73.6797 350 72.5166 348.658 72.5166 347C72.5166 345.342 73.6794 344 75.1167 344H82.9165C84.3535 344 85.5166 345.342 85.5166 347C85.5166 348.658 84.3538 350 82.9165 350Z" fill="#1C78E5"/>
<path d="M85.9451 334H73.0881C71.6669 334 70.5166 332.882 70.5166 331.5C70.5166 330.118 71.6666 329 73.0881 329H85.9451C87.3663 329 88.5166 330.118 88.5166 331.5C88.5163 332.882 87.3663 334 85.9451 334Z" fill="#1CD9E5"/>
<path d="M82.9165 319H75.1167C73.6797 319 72.5166 317.882 72.5166 316.5C72.5166 315.118 73.6794 314 75.1167 314H82.9165C84.3535 314 85.5166 315.118 85.5166 316.5C85.5166 317.882 84.3538 319 82.9165 319Z" fill="#1CE5C1"/>
<path d="M85.9451 304H73.0881C71.6669 304 70.5166 302.882 70.5166 301.5C70.5166 300.118 71.6666 299 73.0881 299H85.9451C87.3663 299 88.5166 300.118 88.5166 301.5C88.5163 302.882 87.3663 304 85.9451 304Z" fill="#1CE59D"/>
<path d="M82.9165 289H75.1167C73.6797 289 72.5166 287.882 72.5166 286.5C72.5166 285.118 73.6794 284 75.1167 284H82.9165C84.3535 284 85.5166 285.118 85.5166 286.5C85.5166 287.882 84.3538 289 82.9165 289Z" fill="#C8E2C7"/>
<path d="M85.9451 274H73.0881C71.6669 274 70.5166 272.658 70.5166 271C70.5166 269.342 71.6666 268 73.0881 268H85.9451C87.3663 268 88.5166 269.342 88.5166 271C88.5163 272.658 87.3663 274 85.9451 274Z" fill="#C9E51C"/>
<path d="M82.9165 258H75.1167C73.6797 258 72.5166 256.882 72.5166 255.5C72.5166 254.118 73.6794 253 75.1167 253H82.9165C84.3535 253 85.5166 254.118 85.5166 255.5C85.5166 256.882 84.3538 258 82.9165 258Z" fill="#D5E51C"/>
<path d="M85.9451 243H73.0881C71.6669 243 70.5166 241.658 70.5166 240C70.5166 238.342 71.6666 237 73.0881 237H85.9451C87.3663 237 88.5166 238.342 88.5166 240C88.5163 241.658 87.3663 243 85.9451 243Z" fill="#E5C51C"/>
<path d="M82.9165 227H75.1167C73.6797 227 72.5166 225.658 72.5166 224C72.5166 222.342 73.6794 221 75.1167 221H82.9165C84.3535 221 85.5166 222.342 85.5166 224C85.5166 225.658 84.3538 227 82.9165 227Z" fill="#E5B91C"/>
<path d="M85.9451 198H73.0881C71.6669 198 70.5166 196.882 70.5166 195.5C70.5166 194.118 71.6666 193 73.0881 193H85.9451C87.3663 193 88.5166 194.118 88.5166 195.5C88.5163 196.882 87.3663 198 85.9451 198Z" fill="#EC8C1C"/>
<path d="M82.9165 213H75.1167C73.6797 213 72.5166 211.882 72.5166 210.5C72.5166 209.118 73.6794 208 75.1167 208H82.9165C84.3535 208 85.5166 209.118 85.5166 210.5C85.5166 211.882 84.3538 213 82.9165 213Z" fill="#E5891C"/>
<path d="M83.9165 184H76.1167C74.6797 184 73.5166 182.882 73.5166 181.5C73.5166 180.118 74.6794 179 76.1167 179H83.9165C85.3535 179 86.5166 180.118 86.5166 181.5C86.5166 182.882 85.3538 184 83.9165 184Z" fill="#E5891C"/>
<path d="M85.9451 169H73.0881C71.6669 169 70.5166 167.882 70.5166 166.5C70.5166 165.118 71.6666 164 73.0881 164H85.9451C87.3663 164 88.5166 165.118 88.5166 166.5C88.5163 167.882 87.3663 169 85.9451 169Z" fill="#E5581C"/>
<path d="M85.9451 141H73.0881C71.6669 141 70.5166 139.658 70.5166 138C70.5166 136.342 71.6666 135 73.0881 135H85.9451C87.3663 135 88.5166 136.342 88.5166 138C88.5163 139.658 87.3663 141 85.9451 141Z" fill="#E5581C"/>
<path d="M82.9165 125H75.1167C73.6797 125 72.5166 123.882 72.5166 122.5C72.5166 121.118 73.6794 120 75.1167 120H82.9165C84.3535 120 85.5166 121.118 85.5166 122.5C85.5166 123.882 84.3538 125 82.9165 125Z" fill="#E54C1C"/>
<path d="M83.9165 155H76.1167C74.6797 155 73.5166 153.882 73.5166 152.5C73.5166 151.118 74.6794 150 76.1167 150H83.9165C85.3535 150 86.5166 151.118 86.5166 152.5C86.5166 153.882 85.3538 155 83.9165 155Z" fill="#E54C1C"/>
<path d="M82.9165 96H75.1167C73.6797 96 72.5166 94.882 72.5166 93.5C72.5166 92.1183 73.6794 91 75.1167 91H82.9165C84.3535 91 85.5166 92.118 85.5166 93.5C85.5166 94.882 84.3538 96 82.9165 96Z" fill="#B22929"/>
<path d="M85.9451 111H73.0881C71.6669 111 70.5166 109.658 70.5166 108C70.5166 106.342 71.6666 105 73.0881 105H85.9451C87.3663 105 88.5166 106.342 88.5166 108C88.5163 109.658 87.3663 111 85.9451 111Z" fill="#B32929"/>
</svg>
