<svg width="532" height="342" viewBox="0 0 532 342" fill="none" xmlns="http://www.w3.org/2000/svg">
<path d="M411.579 79.6034C411.579 35.7095 375.87 0 331.976 0C327.09 0 323.131 3.96012 323.131 8.84483C323.131 13.7295 327.09 17.6897 331.976 17.6897C366.115 17.6897 393.89 45.4648 393.89 79.6034C393.89 113.742 366.115 141.517 331.976 141.517H8.84483C3.95894 141.517 0 145.477 0 150.362C0 155.247 3.95894 159.207 8.84483 159.207H331.976C375.87 159.207 411.579 123.497 411.579 79.6034Z" fill="#268C63"/>
<path d="M264.165 117.931H331.975C353.11 117.931 370.303 100.738 370.303 79.6035C370.303 58.469 353.11 41.2759 331.975 41.2759H311.927C307.041 41.2759 303.082 45.236 303.082 50.1207C303.082 55.0054 307.041 58.9655 311.927 58.9655H331.975C343.355 58.9655 352.613 68.2243 352.613 79.6035C352.613 90.9826 343.355 100.241 331.975 100.241H264.165C259.279 100.241 255.32 104.202 255.32 109.086C255.32 113.971 259.279 117.931 264.165 117.931Z" fill="#21533F"/>
<path d="M70.169 117.931H231.735C236.62 117.931 240.579 113.971 240.579 109.086C240.579 104.201 236.62 100.241 231.735 100.241H70.169C65.2832 100.241 61.3242 104.201 61.3242 109.086C61.3242 113.971 65.2832 117.931 70.169 117.931Z" fill="#21533F"/>
<path d="M451.968 224.069H126.775C121.89 224.069 117.931 228.029 117.931 232.914C117.931 237.798 121.89 241.759 126.775 241.759H451.968C486.107 241.759 513.882 269.534 513.882 303.672C513.882 308.557 517.841 312.517 522.727 312.517C527.612 312.517 531.571 308.557 531.571 303.672C531.571 259.778 495.862 224.069 451.968 224.069Z" fill="#21BD7E"/>
<path d="M451.969 265.345H144.466C139.58 265.345 135.621 269.305 135.621 274.19C135.621 279.074 139.58 283.034 144.466 283.034H451.969C463.348 283.034 472.607 292.293 472.607 303.672C472.607 315.051 463.348 324.31 451.969 324.31C447.083 324.31 443.124 328.27 443.124 333.155C443.124 338.04 447.083 342 451.969 342C473.103 342 490.296 324.807 490.296 303.672C490.296 282.538 473.103 265.345 451.969 265.345Z" fill="#1A3C2E"/>
<path d="M122.255 266.841C115.511 262.401 106.53 268.922 108.865 276.717C109.897 280.164 113.02 282.698 116.606 283.002C120.466 283.329 124.169 281.006 125.574 277.405C127.055 273.607 125.675 269.094 122.255 266.841Z" fill="#1A3C2E"/>
<path d="M343.576 182.969C346.442 182.391 343.009 183.075 343.576 182.969V182.969Z" fill="#21BD7E"/>
<path d="M336.524 190.541C336.067 194.137 337.951 197.728 341.136 199.438C344.527 201.259 348.846 200.603 351.561 197.887C354.105 195.341 354.836 191.383 353.396 188.092C351.759 184.35 347.592 182.159 343.577 182.969C339.877 183.662 336.994 186.835 336.524 190.541Z" fill="#21BD7E"/>
<path d="M91.0428 265.345H70.169C65.2832 265.345 61.3242 269.305 61.3242 274.19C61.3242 279.074 65.2832 283.034 70.169 283.034H91.0428C95.9287 283.034 99.8877 279.074 99.8877 274.19C99.8877 269.305 95.9287 265.345 91.0428 265.345Z" fill="#1A3C2E"/>
<path d="M364.407 191.638C364.407 196.522 368.366 200.483 373.252 200.483H444.011C448.897 200.483 452.856 196.522 452.856 191.638C452.856 186.753 448.897 182.793 444.011 182.793H373.252C368.366 182.793 364.407 186.753 364.407 191.638Z" fill="#21BD7E"/>
<path d="M364.407 191.638C364.407 196.522 368.366 200.483 373.252 200.483H444.011C448.897 200.483 452.856 196.522 452.856 191.638C452.856 186.753 448.897 182.793 444.011 182.793H373.252C368.366 182.793 364.407 186.753 364.407 191.638Z" fill="#186445"/>
<path d="M326.669 191.638C326.669 186.753 322.71 182.793 317.824 182.793H39.5069C34.6211 182.793 30.6621 186.753 30.6621 191.638C30.6621 196.522 34.6211 200.483 39.5069 200.483H317.824C322.71 200.483 326.669 196.522 326.669 191.638Z" fill="#186445"/>
</svg>
