<svg width="101" height="101" viewBox="0 0 101 101" fill="none" xmlns="http://www.w3.org/2000/svg">
<path d="M50.3278 2.07006C50.0726 4.84159 50.1747 4.68902 47.9287 4.89244C35.9333 5.93494 25.6989 10.6898 17.8381 18.8518C12.4784 24.4203 8.90529 30.6499 6.68486 38.3542C6.02128 40.6172 5.00039 46.9739 5.00039 48.7284C5.00039 49.9234 4.97487 49.9234 2.34609 50.2031C0.253265 50.4065 0.559532 50.6862 3.11175 50.9405L5.00039 51.1185V52.1356C5.00039 53.7629 5.99576 59.9162 6.68486 62.408C7.45053 65.2304 8.98186 69.1461 10.258 71.5363C11.1002 73.1382 13.1165 76.3674 13.6779 77.1048C16.8172 80.9951 19.3183 83.6395 21.845 85.699C25.7755 88.8774 32.2071 92.3609 36.5203 93.6577C37.7964 94.0391 39.0725 94.4459 39.4043 94.573C40.1445 94.8781 45.5807 95.7172 48.1584 95.9461L50.1236 96.1241L50.2768 97.0649C50.3533 97.5734 50.4299 98.5142 50.4299 99.1753C50.4299 101.108 50.8638 100.599 51.1956 98.2599L51.5018 96.1241L53.3139 95.9715C60.0263 95.3613 65.6156 93.8865 70.7711 91.3438C80.393 86.6144 87.7434 79.1389 92.3118 69.4513C94.5833 64.6456 95.7063 60.1705 96.574 52.5933L96.7527 50.9405L98.871 50.7117C100.02 50.5845 100.964 50.4065 100.964 50.3048C100.964 50.2031 99.994 50.0251 98.82 49.9234L96.6761 49.7454L96.4975 47.813C96.2933 45.4992 95.4255 40.0832 95.0938 38.9899C94.9661 38.5576 94.5578 37.2608 94.175 36.0658C92.6436 31.2093 89.1471 25.0559 85.4464 20.708C83.7874 18.7755 79.5507 14.8089 78.2491 13.9698C77.8918 13.7664 77.56 13.5121 77.4834 13.4359C77.4069 13.3596 76.5391 12.7748 75.5693 12.1137C71.9962 9.79983 67.0193 7.58769 62.8847 6.4689C60.256 5.78238 54.1562 4.79073 52.3951 4.79073H51.2721L51.0935 3.44311C51.0169 2.73115 50.9404 1.76493 50.9404 1.30725C50.9404 -0.294642 50.481 0.264749 50.3278 2.07006ZM50.4299 24.7508V44.9652H49.7919C49.4345 44.9652 48.5923 45.2703 47.9032 45.6517L46.6271 46.3637L45.8614 45.6263C45.4276 45.2195 45.0192 44.6855 44.9426 44.4312C44.8661 44.2024 45.0447 42.2445 45.351 40.1087C45.6317 37.9474 46.0911 34.6419 46.3464 32.7603C46.6016 30.8787 47.061 27.6749 47.3417 25.6408C47.6225 23.6066 47.9798 20.9877 48.1329 19.7926C48.286 18.5975 48.5923 16.5888 48.7965 15.3429C49.0007 14.0715 49.3325 11.6306 49.5622 9.87611C50.2002 4.73988 50.2257 4.53646 50.3278 4.53646C50.3789 4.53646 50.4299 13.6393 50.4299 24.7508ZM49.7153 5.32469C49.7663 5.50268 49.6642 6.62146 49.5111 7.81653C49.3325 9.01159 48.9496 11.656 48.6689 13.6901C48.3626 15.7243 48.1329 17.7584 48.1329 18.1907C48.1329 19.1061 48.3371 19.0298 44.7895 19.6654C39.8382 20.53 34.6061 23.0218 30.4971 26.429L29.3231 27.3952L25.5202 24.3186C23.4274 22.6404 21.3346 20.9114 20.9007 20.4791C20.0074 19.64 19.497 19.6146 20.2882 20.4537C20.5434 20.7334 22.2534 22.8184 24.091 25.0814L27.4344 29.2005L25.6989 31.5144C22.6618 35.5572 20.4413 40.6426 19.8033 45.0923C19.6246 46.3637 19.3439 47.5079 19.1907 47.6604C19.0376 47.813 17.3531 48.1435 15.4645 48.3724C13.5759 48.6267 10.5898 49.0589 8.85425 49.3132C6.83799 49.6183 5.58741 49.72 5.43427 49.5675C5.10248 49.2369 5.89367 42.9565 6.68486 39.7527C8.93081 30.7261 13.6014 22.9964 20.5689 16.7668C27.4855 10.5626 35.6015 6.8503 44.9937 5.55353C49.0772 4.99414 49.5877 4.96872 49.7153 5.32469ZM57.4485 5.7061C71.9196 7.74025 84.8083 17.0719 91.342 30.2176C93.1541 33.8791 93.7411 35.4047 94.813 39.3713C95.5787 42.1937 96.4209 49.0589 96.0636 49.4149C95.987 49.5166 94.6599 49.3895 93.1541 49.1606C87.7434 48.3724 85.2422 48.0164 83.8129 47.8639C82.1795 47.6859 82.2561 47.7876 81.8222 45.0923C81.031 40.2866 78.8616 35.3793 75.6203 31.1838C74.676 29.9379 74.1911 29.0988 74.3187 28.8954C74.5229 28.5394 78.096 24.1406 80.2398 21.6233C81.8222 19.7417 81.7967 19.2078 80.2143 20.7334C79.6273 21.2928 77.5855 23.0218 75.6714 24.5474L72.2003 27.3698L70.3117 25.8442C68.4486 24.344 67.785 23.9372 64.9776 22.4624C62.1956 21.0131 59.2606 20.0214 56.3 19.5637C55.2536 19.3858 54.1306 19.2078 53.8499 19.1569C53.2374 19.0298 53.3139 19.284 52.4717 12.9782C52.1909 10.8423 51.8336 8.52848 51.706 7.81653C51.5529 7.07915 51.4508 6.16378 51.4508 5.73152V4.96872L53.0587 5.1467C53.9265 5.24841 55.9172 5.50268 57.4485 5.7061ZM47.699 20.174C47.1886 25.0051 47.0099 26.3781 46.8313 26.8358C46.6781 27.2427 46.2953 27.4461 45.2489 27.6749C42.5435 28.2343 39.8382 29.4548 37.1839 31.3364L35.5505 32.4806L34.7082 31.7941C34.2488 31.4127 32.9472 30.3702 31.8242 29.4548C30.7012 28.5394 29.808 27.7003 29.859 27.5478C29.8845 27.4206 30.9565 26.5307 32.2071 25.5899C35.7802 22.8692 40.5018 20.7588 44.9426 19.9197C47.2652 19.4875 47.7756 19.5383 47.699 20.174ZM55.8661 19.818C59.5669 20.3774 63.7525 21.9284 67.0193 23.9626C68.959 25.1831 71.6133 27.2427 71.6133 27.5478C71.6133 27.8275 67.5298 31.2601 66.3558 31.9975C65.8708 32.3026 65.6411 32.2009 64.1864 31.1838C62.7571 30.1667 61.6597 29.5819 58.7246 28.3106C58.3163 28.1326 57.2443 27.8275 56.3511 27.6749C55.4833 27.4969 54.6666 27.2172 54.5645 27.0647C54.3603 26.7596 53.5181 21.3182 53.4926 20.2248C53.4926 19.4366 53.4415 19.4366 55.8661 19.818ZM33.9936 33.8791C39.7361 39.5493 44.3301 44.2532 44.2535 44.3549C44.1514 44.4567 43.2837 44.5838 42.3394 44.6346L40.6039 44.7364L38.3834 41.9902C34.8869 37.6423 28.9657 30.3956 27.8172 29.048C27.2302 28.3614 26.1583 27.0647 25.4182 26.1493C24.678 25.2339 23.8868 24.2931 23.6826 24.0389C22.2279 22.3607 24.8822 24.9034 33.9936 33.8791ZM77.8152 23.9117C77.6876 24.0897 76.5902 25.4374 75.4161 26.9121C74.2166 28.3869 72.6597 30.2685 71.9706 31.133C68.3975 35.5318 64.0588 40.7952 63.8291 41.0495C63.6759 41.202 62.9358 42.092 62.1701 43.0327C61.43 43.9481 60.6643 44.7109 60.5112 44.7109C60.358 44.7109 59.5413 44.5838 58.7501 44.4058L57.2699 44.1261L67.5808 33.8536C73.2212 28.2343 77.9173 23.6066 77.9684 23.6066C78.0194 23.6066 77.9428 23.7592 77.8152 23.9117ZM46.2443 31.0313C45.7593 34.9979 45.0447 39.7273 44.9426 39.8544C44.815 39.9815 36.1375 32.9891 36.1375 32.7603C36.1375 32.1246 40.221 29.6582 42.8243 28.692C44.1514 28.2089 46.3719 27.6749 46.5505 27.8275C46.6016 27.8529 46.474 29.3022 46.2443 31.0313ZM56.0703 27.9292C57.6527 28.2343 59.5924 28.9717 61.8639 30.1413C63.7015 31.0821 65.5391 32.4806 65.3349 32.7857C65.2583 32.9128 63.2421 34.6165 60.8174 36.5743C57.8313 39.0153 56.4021 40.0324 56.2745 39.829C56.1724 39.651 55.8406 37.6677 55.5599 35.4301C55.2536 33.1925 54.8963 30.6753 54.7687 29.8362C54.4879 28.2089 54.4624 27.6749 54.6156 27.6749C54.6666 27.6749 55.3302 27.8021 56.0703 27.9292ZM29.3996 31.5398C30.2418 32.5569 31.3138 33.8536 31.7477 34.4385L32.5644 35.4555L31.2117 37.4897C29.6804 39.7781 28.4298 42.5751 27.9448 44.8381C27.7917 45.6771 27.562 46.4399 27.4855 46.5417C27.2813 46.7705 20.033 47.813 19.8543 47.6604C19.548 47.3299 20.7986 41.3546 21.5898 39.4984C22.6107 37.0066 24.4228 33.7774 25.8265 31.9212C26.7453 30.7007 27.5875 29.7091 27.6641 29.7091C27.7662 29.7091 28.5574 30.5482 29.3996 31.5398ZM75.3906 31.4381C76.9475 33.4722 78.9382 36.9303 79.7039 38.8627C81.0055 42.2445 82.0264 46.8468 81.5925 47.3299C81.4904 47.4316 80.2143 47.3299 78.734 47.1265C77.2793 46.9231 75.6714 46.7451 75.1609 46.7451C74.4208 46.7451 74.1911 46.6179 73.9614 46.1094C73.7827 45.7534 73.6551 45.2449 73.6551 44.9652C73.6551 44.4312 72.4045 40.9732 71.7154 39.6255C71.4602 39.1424 70.7456 37.9982 70.133 37.1083C68.8314 35.2521 68.8314 35.2521 70.7201 33.1671C71.3581 32.4806 72.2514 31.4127 72.7108 30.8278C73.1447 30.2176 73.6551 29.7091 73.8082 29.7091C73.9359 29.7091 74.6505 30.4719 75.3906 31.4381ZM36.9797 40.7698C38.511 42.5751 39.8382 44.2532 39.9658 44.4821C40.221 44.9398 39.8637 45.016 31.7987 46.1094C30.1908 46.3382 28.6595 46.5671 28.4043 46.6434C28.0214 46.7705 27.9704 46.6688 28.1235 45.6771C28.5063 43.109 30.3695 38.939 32.1305 36.7523L32.8962 35.7607L33.5597 36.5997C33.917 37.0829 35.4739 38.939 36.9797 40.7698ZM69.6481 37.0066C71.8175 39.9815 74.2932 46.3891 73.2723 46.3637C72.7874 46.3382 67.8871 45.7026 65.488 45.3212C64.1609 45.1178 62.6806 44.8889 62.2467 44.8126C61.3789 44.6855 61.1748 44.3804 61.7362 44.0244C61.9149 43.9227 63.5228 42.0157 65.3349 39.8035C67.1214 37.6168 68.6272 35.8115 68.6783 35.8115C68.7293 35.8115 69.1632 36.3455 69.6481 37.0066ZM61.2768 45.0923C64.5947 45.5246 70.7966 46.3637 73.1447 46.7196C74.0635 46.8468 76.6412 47.2028 78.8872 47.5079C81.1331 47.813 84.0682 48.2198 85.3953 48.4232C86.7225 48.6267 89.1981 48.9572 90.8826 49.1861C96.3699 49.8726 97.1866 49.9997 97.3142 50.1523C97.4163 50.2286 88.2028 50.3048 76.8964 50.3048H56.3V49.72C56.3 49.4149 55.9682 48.5758 55.5599 47.8384L54.8452 46.5417L55.8917 45.4992C56.7594 44.6092 57.0402 44.4821 57.7037 44.5838C58.1121 44.6601 59.7455 44.8889 61.2768 45.0923ZM52.9311 45.7026C53.4415 45.9568 54.1306 46.4654 54.4369 46.7959C55.2026 47.6096 56.0448 49.5166 56.0448 50.432C56.0448 51.2965 55.2281 53.2289 54.5645 53.9409C53.8499 54.7545 51.7826 55.6445 50.6851 55.6445C49.1028 55.6445 47.2396 54.5765 46.3464 53.1781C45.402 51.7033 45.2999 49.5675 46.0656 48.0418C47.3162 45.6009 50.583 44.5075 52.9311 45.7026ZM45.1979 51.2456C45.2744 51.6525 45.6317 52.517 46.0146 53.2035L46.6526 54.424L45.6573 55.3648L44.6619 56.3056L41.9821 56.0005C40.5273 55.8225 38.1793 55.4919 36.7755 55.2631C34.3764 54.8817 27.6641 53.9663 19.4204 52.8475C17.4552 52.5933 15.1072 52.2627 14.1884 52.1101C13.2696 51.983 10.9726 51.6779 9.08395 51.449C7.1953 51.1948 5.40875 50.9151 5.12801 50.8134C4.84726 50.6862 13.729 50.5845 24.8311 50.5845L45.0702 50.5591L45.1979 51.2456ZM96.1657 52.4661C96.0126 54.9834 95.3235 59.6111 94.813 61.4927C90.4232 77.7913 78.1725 89.9708 61.9149 94.2679C60.0773 94.751 55.2536 95.4884 53.1097 95.6155C51.6805 95.6918 51.4508 95.5138 51.706 94.3696C51.8336 93.8356 52.0633 92.3609 52.2165 91.115C52.7014 87.1229 53.5436 81.9613 53.7223 81.7833C53.8244 81.6816 54.7687 81.4782 55.8661 81.3256C58.4694 80.9442 61.4045 80.0543 64.0843 78.8084C66.3558 77.7404 70.1841 75.3503 70.9753 74.4604C71.2305 74.1807 71.5878 73.9518 71.792 73.9518C72.0983 73.9518 75.6969 76.7488 79.857 80.2323C81.3883 81.529 81.7712 81.4528 80.4951 80.1051C80.0101 79.5966 78.8872 78.249 77.9939 77.1302C77.1006 76.0114 75.7479 74.4095 75.0078 73.545L73.6551 71.994L74.8547 70.6209C78.4278 66.4763 80.8268 61.213 81.7967 55.5428L82.2306 53.0001L85.2677 52.5424C86.9522 52.3136 89.8362 51.8813 91.6483 51.6016C93.4859 51.3473 95.2469 51.1439 95.6042 51.1439C96.2167 51.1948 96.2423 51.2711 96.1657 52.4661ZM11.3809 52.0847C19.2418 53.1526 19.2673 53.1526 19.3949 53.5849C19.4715 53.8137 19.6501 54.78 19.8033 55.7716C20.3137 59.1025 21.794 63.12 23.7847 66.5526C24.04 67.0103 24.9843 68.3325 25.852 69.4513C27.1537 71.1803 27.3578 71.5871 27.1026 71.9431C26.7198 72.5025 23.4274 76.5454 21.4112 78.9609C19.5225 81.1985 19.2928 81.9104 21.0283 80.2831C21.9471 79.3932 27.0261 75.2486 29.1189 73.6721C29.272 73.5704 30.2163 74.1298 31.2883 74.9943C35.4484 78.2998 40.7315 80.6137 45.7849 81.351C47.5459 81.6307 47.9543 81.7579 48.1074 82.1901C48.2095 82.4953 48.5157 84.326 48.771 86.2839C49.0262 88.2417 49.4345 91.0387 49.6642 92.5134C49.9195 94.0899 49.996 95.3104 49.8684 95.463C49.6387 95.7935 49.409 95.7681 44.5598 95.1578C36.0099 94.0645 27.4344 90.1742 20.8242 84.3514C16.3067 80.3594 12.5294 75.4012 9.97722 70.0869C7.24635 64.3659 6.5062 61.6452 5.35771 52.9238C5.17905 51.449 5.35771 51.2202 6.63382 51.449C7.1953 51.5253 9.33917 51.8304 11.3809 52.0847ZM25.4692 54.0172C27.6386 54.1951 27.511 54.068 28.098 56.5598C28.6084 58.7211 29.9611 61.6452 31.3903 63.6539L32.5388 65.2558L31.62 66.4763C31.0841 67.1629 30.446 67.9511 30.1908 68.2308C29.9356 68.5105 29.2975 69.2733 28.7871 69.9344C28.2766 70.6209 27.7917 71.1549 27.7152 71.1549C27.562 71.1549 24.6525 67.3154 23.9634 66.1966C22.9935 64.6456 21.5643 61.3401 20.9007 59.0771C20.3137 57.1192 19.7267 53.6866 19.9054 53.3815C19.9819 53.2798 20.8242 53.3306 21.7685 53.5086C22.7128 53.6866 24.3973 53.9155 25.4692 54.0172ZM81.8222 53.2544C81.8222 54.0172 81.1331 57.4752 80.6482 59.1534C79.5252 63.0437 76.7433 68.1291 74.3442 70.6972L73.4509 71.638L71.4347 69.1716C68.4741 65.5864 68.5762 65.7898 69.495 64.6456C71.3071 62.3317 73.0936 58.5431 73.6806 55.7208C73.8338 54.9834 74.089 54.2969 74.2421 54.1951C74.5484 54.0172 79.7039 53.2035 81.0055 53.1272C81.4394 53.1272 81.8222 53.1781 81.8222 53.2544ZM73.502 55.0597C73.0936 57.4244 71.7409 60.6281 70.1586 63.0437C68.6528 65.3575 68.5251 65.4338 67.7084 64.5947C66.7386 63.5777 60.894 56.331 60.894 56.1276C60.894 55.9496 63.2931 55.5173 67.4022 55.0088C69.0866 54.78 71.0518 54.5257 71.7409 54.3986C73.7827 54.0426 73.7062 54.0172 73.502 55.0597ZM32.692 55.0088C34.5296 55.2376 36.4693 55.5173 37.0308 55.6445C37.5922 55.7716 38.4855 55.8987 39.0215 55.8987C40.0169 55.8987 40.221 56.2039 39.583 56.8395C39.3788 57.043 37.873 58.8737 36.2396 60.8824C34.6061 62.8911 33.1514 64.6202 33.0238 64.6964C32.2836 65.1541 28.9402 59.1788 28.3787 56.331C28.3022 55.9496 28.1746 55.3394 28.098 54.9834C27.9704 54.3731 27.9959 54.3477 28.6595 54.4748C29.0423 54.5511 30.8799 54.8054 32.692 55.0088ZM55.6364 55.6191L56.6318 56.6107L56.2234 59.7636C55.9937 61.4927 55.5854 64.493 55.3046 66.4509C54.6921 70.8752 53.8754 76.7234 53.4926 79.4186C53.3394 80.5374 53.0077 83.0547 52.7269 85.0125C52.4462 86.9704 51.9868 90.225 51.6805 92.2592C51.3998 94.2679 51.119 95.9715 51.068 96.0478C50.9914 96.0986 50.9404 87.0975 50.9404 76.0368V55.8987H51.5274C51.8336 55.8987 52.5993 55.6191 53.2374 55.2631C53.8754 54.9325 54.4369 54.6528 54.5135 54.6274C54.59 54.6274 55.1005 55.0851 55.6364 55.6191ZM42.8498 56.3819C43.3858 56.509 43.8962 56.6616 43.9473 56.7378C43.9983 56.7887 39.4298 61.4164 33.7894 67.0357C28.1235 72.6296 23.4529 77.181 23.3764 77.1048C23.3253 77.0285 23.3764 76.9013 23.5295 76.7996C23.6826 76.6979 25.3416 74.7401 27.2302 72.4262C29.0934 70.1124 31.4924 67.1883 32.5644 65.9169C33.6108 64.6456 35.8567 61.9503 37.5157 59.8908C40.808 55.8479 40.7315 55.8987 42.8498 56.3819ZM67.5298 67.7222C73.1447 73.3162 77.7387 77.9184 77.7387 77.9693C77.7387 78.0201 77.3048 77.715 76.7943 77.2827C72.8384 74.1044 57.6527 61.7978 57.0146 61.2384C56.7339 61.0096 56.5552 60.501 56.5552 59.9416C56.5552 58.6703 56.836 57.3989 57.0912 57.4752C57.2188 57.5261 61.9149 62.1283 67.5298 67.7222ZM45.8104 64.9761C46.1167 67.3408 46.4995 69.8581 46.6271 70.6209C47.0355 73.011 46.9844 73.189 46.0401 73.011C44.7895 72.7822 42.3138 71.9431 40.7315 71.2312C38.9704 70.4175 36.0864 68.3833 36.1885 68.0528C36.2906 67.7985 44.815 60.7807 45.0702 60.7553C45.1723 60.7299 45.4786 62.6369 45.8104 64.9761ZM59.8221 63.9845C61.5065 65.3575 63.4207 66.8832 64.0588 67.3663C64.6968 67.8494 65.2328 68.3071 65.2328 68.4088C65.2328 68.6122 62.9103 70.1378 61.3024 71.0023C59.8476 71.7651 56.7339 72.8585 55.662 72.9856C54.9473 73.0619 54.8963 73.011 54.9218 72.2991C54.9729 70.1632 56.3 61.4927 56.5808 61.4927C56.6573 61.4927 58.1121 62.6114 59.8221 63.9845ZM35.9843 68.5868C36.112 68.7902 39.0981 70.7735 40.1189 71.3329C41.3695 71.994 44.1259 72.9856 45.3255 73.1636C46.0401 73.2653 46.7037 73.4433 46.8058 73.545C47.061 73.8247 48.1074 80.9188 47.9032 81.1222C47.4949 81.5799 41.8034 80.3085 39.0725 79.1643C36.3161 78.0201 32.743 75.8588 30.5226 73.9773L29.6548 73.2399L30.395 72.6042C35.7802 68.1036 35.7291 68.1545 35.9843 68.5868ZM68.5762 71.0786C70.1075 72.3245 71.3581 73.4179 71.3581 73.5704C71.3581 74.079 67.3511 76.7742 64.5947 78.1473C63.0634 78.9101 60.8174 79.8254 59.6179 80.156C57.0657 80.8679 53.952 81.3765 53.7223 81.1222C53.6202 81.0205 53.6968 80.0797 53.8754 79.0372C54.0541 77.9947 54.2838 76.3674 54.3858 75.452C54.539 73.9773 54.6411 73.723 55.2026 73.4687C55.5343 73.3162 55.9937 73.189 56.1979 73.189C57.5506 73.189 62.7316 70.8498 64.6968 69.3241C65.0286 69.0699 65.4114 68.8665 65.539 68.8665C65.6667 68.8665 67.0193 69.8581 68.5762 71.0786Z" fill="#254337"/>
</svg>
