<svg width="94" height="102" viewBox="0 0 94 102" fill="none" xmlns="http://www.w3.org/2000/svg">
<g filter="url(#filter0_d_74_2)">
<path d="M47.4504 65.5779L53.3056 81.4515H41.5953L47.4504 65.5779Z" fill="black"/>
<ellipse cx="47.5484" cy="82.5292" rx="6.27107" ry="6.76099" fill="black"/>
<path d="M47.5487 19.5249L52.8099 13.9397H42.2875L47.5487 19.5249Z" fill="#C91A1A"/>
<path d="M47.4507 2.47546L52.6271 13.9398H42.2744L47.4507 2.47546Z" fill="#C91A1A"/>
<path d="M44.4253 7.54941L41.4263 14.1776L44.0233 16.7745L46.6311 19.3824L46.6311 43.0048L46.6094 66.6272L46.1095 67.7572C45.2729 69.6153 43.0236 75.4502 42.2413 77.7321C40.5679 82.6869 40.6114 84.8818 42.4369 87.2289C43.1649 88.1525 44.6752 89.1195 45.7944 89.3694L46.6528 89.5541L46.6528 91.3796L46.6528 93.1834L47.4678 93.1725L48.2827 93.1834L48.2827 91.4013L48.2936 89.6085L49.4997 89.2064C50.6841 88.8044 50.7822 88.5328 52.154 87.6246C53.0854 86.2529 53.2484 86.2183 53.5961 85.2404C54.0851 83.8822 54.1286 82.9694 53.8134 81.546C53.3027 79.2968 51.6946 74.7983 49.3258 68.9959L48.2936 66.4424L48.2827 42.9178L48.2827 19.4041L50.9014 16.7854L53.5092 14.1776L50.9123 8.45128C49.478 5.32191 48.1197 2.33379 47.8807 1.81223C47.6525 1.30154 47.4569 0.888634 47.4352 0.910366C47.4352 0.932098 46.0769 3.92021 44.4253 7.54941ZM47.5438 2.90969C47.5873 2.97488 48.7282 5.46317 50.0973 8.46215L52.5639 13.9277L50.0213 16.5355L47.4678 19.1324L44.9252 16.5464L42.3826 13.9385L44.8491 8.47301C46.2073 5.46317 47.3483 2.97488 47.3917 2.90969C47.4352 2.86622 47.5004 2.86622 47.5438 2.90969ZM46.5224 69.0394C46.5333 69.0502 46.5442 73.4944 46.5442 78.9273L46.5442 88.7935L45.7401 88.5328C43.4148 87.7721 41.8067 85.7076 41.698 83.3606C41.6328 81.9046 42.5781 78.8513 45.2837 71.9297C46.2834 69.3654 46.4464 68.9633 46.5224 69.0394ZM48.9129 70.1042C50.9231 75.0047 52.8572 80.6333 53.0854 82.2957C53.4331 84.708 52.2053 86.9789 49.9561 88.1416C48.1197 89.0869 48.2827 90.0105 48.2827 78.7317C48.2827 73.2336 48.2936 68.7243 48.3044 68.7134C48.3153 68.7025 48.5978 69.3328 48.9129 70.1042Z" fill="#1AFFA2"/>
</g>
<defs>
<filter id="filter0_d_74_2" x="37.0254" y="0.909546" width="20.9893" height="100.274" filterUnits="userSpaceOnUse" color-interpolation-filters="sRGB">
<feFlood flood-opacity="0" result="BackgroundImageFix"/>
<feColorMatrix in="SourceAlpha" type="matrix" values="0 0 0 0 0 0 0 0 0 0 0 0 0 0 0 0 0 0 127 0" result="hardAlpha"/>
<feOffset dy="4"/>
<feGaussianBlur stdDeviation="2"/>
<feComposite in2="hardAlpha" operator="out"/>
<feColorMatrix type="matrix" values="0 0 0 0 0 0 0 0 0 0 0 0 0 0 0 0 0 0 0.25 0"/>
<feBlend mode="normal" in2="BackgroundImageFix" result="effect1_dropShadow_74_2"/>
<feBlend mode="normal" in="SourceGraphic" in2="effect1_dropShadow_74_2" result="shape"/>
</filter>
</defs>
</svg>
