<svg width="17" height="19" viewBox="0 0 17 19" fill="none" xmlns="http://www.w3.org/2000/svg">
<path fill-rule="evenodd" clip-rule="evenodd" d="M11.4164 0.531094C11.9833 -0.138826 13.0016 -0.181176 13.6222 0.439354L15.203 2.02023C15.7547 2.57187 15.7914 3.45426 15.2875 4.0498L4.88183 16.3474C4.83809 16.3991 4.7843 16.4413 4.72374 16.4716L2.61817 17.5244H16.5001C16.7763 17.5244 17.0001 17.7483 17.0001 18.0244C17.0001 18.3005 16.7763 18.5244 16.5001 18.5244H0.500132C0.268242 18.5244 0.0667921 18.365 0.0135121 18.1393C-0.0397679 17.9136 0.0691222 17.6809 0.276532 17.5772L4.18473 15.6231L14.5241 3.40386C14.692 3.20535 14.6798 2.91122 14.4959 2.72734L12.915 1.14645C12.7082 0.939614 12.3687 0.953734 12.1798 1.17703L1.94402 13.2739L0.974482 16.1825C0.887152 16.4445 0.603992 16.5861 0.342022 16.4987C0.0800522 16.4114 -0.0615279 16.1283 0.0257921 15.8663L1.02579 12.8663C1.04591 12.8059 1.07735 12.75 1.11844 12.7014L11.4164 0.531094Z" fill="white"/>
</svg>
